{
	"asset":{
		"generator":"Khronos glTF Blender I/O v3.5.30",
		"version":"2.0"
	},
	"scene":0,
	"scenes":[
		{
			"name":"Scene",
			"nodes":[
				0,
				1,
				2,
				3
			]
		}
	],
	"nodes":[
		{
			"mesh":0,
			"name":"path4",
			"scale":[
				9.035473823547363,
				14.044776916503906,
				9.035473823547363
			],
			"translation":[
				-0.03429095447063446,
				0.025000151246786118,
				0.0774814784526825
			]
		},
		{
			"mesh":1,
			"name":"path24",
			"scale":[
				9.035473823547363,
				8.445112228393555,
				9.035473823547363
			],
			"translation":[
				0.0007994323968887329,
				0.02499990724027157,
				-0.05998194217681885
			]
		},
		{
			"mesh":2,
			"name":"path1-6",
			"scale":[
				9.035473823547363,
				8.424551963806152,
				9.035473823547363
			],
			"translation":[
				0.0007721632719039917,
				0.041228000074625015,
				0.04849594831466675
			]
		},
		{
			"mesh":3,
			"name":"path26",
			"scale":[
				9.035473823547363,
				8.236178398132324,
				9.035473823547363
			],
			"translation":[
				0.0004114508628845215,
				0.026000039651989937,
				-0.07428798079490662
			]
		}
	],
	"materials":[
		{
			"doubleSided":true,
			"name":"SVGMat.001",
			"pbrMetallicRoughness":{
				"baseColorFactor":[
					0,
					0,
					0,
					1
				],
				"metallicFactor":0,
				"roughnessFactor":0.4000000059604645
			}
		},
		{
			"doubleSided":true,
			"name":"SVGMat.002",
			"pbrMetallicRoughness":{
				"baseColorFactor":[
					0.0006070539820939302,
					0.006995410192757845,
					0.026241222396492958,
					1
				],
				"metallicFactor":0,
				"roughnessFactor":0.4000000059604645
			}
		},
		{
			"doubleSided":true,
			"name":"SVGMat.003",
			"pbrMetallicRoughness":{
				"baseColorFactor":[
					0.0006070539820939302,
					0.006995410192757845,
					0.026241222396492958,
					1
				],
				"metallicFactor":0,
				"roughnessFactor":0.4000000059604645
			}
		}
	],
	"meshes":[
		{
			"name":"path4.001",
			"primitives":[
				{
					"attributes":{
						"POSITION":0,
						"TEXCOORD_0":1,
						"NORMAL":2
					},
					"indices":3,
					"material":0
				}
			]
		},
		{
			"name":"path24",
			"primitives":[
				{
					"attributes":{
						"POSITION":4,
						"TEXCOORD_0":5,
						"NORMAL":6
					},
					"indices":7,
					"material":0
				}
			]
		},
		{
			"name":"path1-6",
			"primitives":[
				{
					"attributes":{
						"POSITION":8,
						"TEXCOORD_0":9,
						"NORMAL":10
					},
					"indices":11,
					"material":1
				}
			]
		},
		{
			"name":"path26",
			"primitives":[
				{
					"attributes":{
						"POSITION":12,
						"TEXCOORD_0":13,
						"NORMAL":14
					},
					"indices":15,
					"material":2
				}
			]
		}
	],
	"accessors":[
		{
			"bufferView":0,
			"componentType":5126,
			"count":10738,
			"max":[
				0.02763781137764454,
				0.0017800105269998312,
				0.015052670612931252
			],
			"min":[
				-0.01989784464240074,
				-0.0017800319474190474,
				-0.02995036542415619
			],
			"type":"VEC3"
		},
		{
			"bufferView":1,
			"componentType":5126,
			"count":10738,
			"type":"VEC2"
		},
		{
			"bufferView":2,
			"componentType":5126,
			"count":10738,
			"type":"VEC3"
		},
		{
			"bufferView":3,
			"componentType":5123,
			"count":22044,
			"type":"SCALAR"
		},
		{
			"bufferView":4,
			"componentType":5126,
			"count":1780,
			"max":[
				0.012047361582517624,
				0.0029603035654872656,
				0.007745914161205292
			],
			"min":[
				-0.012053999118506908,
				-0.002960281213745475,
				-0.01708756387233734
			],
			"type":"VEC3"
		},
		{
			"bufferView":5,
			"componentType":5126,
			"count":1780,
			"type":"VEC2"
		},
		{
			"bufferView":6,
			"componentType":5126,
			"count":1780,
			"type":"VEC3"
		},
		{
			"bufferView":7,
			"componentType":5123,
			"count":3600,
			"type":"SCALAR"
		},
		{
			"bufferView":8,
			"componentType":5126,
			"count":14351,
			"max":[
				0.012766066938638687,
				0.0010412423871457577,
				0.009243536740541458
			],
			"min":[
				-0.012768518179655075,
				-0.004893791396170855,
				-0.00815611332654953
			],
			"type":"VEC3"
		},
		{
			"bufferView":9,
			"componentType":5126,
			"count":14351,
			"type":"VEC2"
		},
		{
			"bufferView":10,
			"componentType":5126,
			"count":14351,
			"type":"VEC3"
		},
		{
			"bufferView":11,
			"componentType":5123,
			"count":30120,
			"type":"SCALAR"
		},
		{
			"bufferView":12,
			"componentType":5126,
			"count":745,
			"max":[
				0.0036034081131219864,
				0.003156798891723156,
				0.0017708539962768555
			],
			"min":[
				-0.0036022253334522247,
				-0.0031568086706101894,
				-0.0017705783247947693
			],
			"type":"VEC3"
		},
		{
			"bufferView":13,
			"componentType":5126,
			"count":745,
			"type":"VEC2"
		},
		{
			"bufferView":14,
			"componentType":5126,
			"count":745,
			"type":"VEC3"
		},
		{
			"bufferView":15,
			"componentType":5123,
			"count":1548,
			"type":"SCALAR"
		}
	],
	"bufferViews":[
		{
			"buffer":0,
			"byteLength":128856,
			"byteOffset":0,
			"target":34962
		},
		{
			"buffer":0,
			"byteLength":85904,
			"byteOffset":128856,
			"target":34962
		},
		{
			"buffer":0,
			"byteLength":128856,
			"byteOffset":214760,
			"target":34962
		},
		{
			"buffer":0,
			"byteLength":44088,
			"byteOffset":343616,
			"target":34963
		},
		{
			"buffer":0,
			"byteLength":21360,
			"byteOffset":387704,
			"target":34962
		},
		{
			"buffer":0,
			"byteLength":14240,
			"byteOffset":409064,
			"target":34962
		},
		{
			"buffer":0,
			"byteLength":21360,
			"byteOffset":423304,
			"target":34962
		},
		{
			"buffer":0,
			"byteLength":7200,
			"byteOffset":444664,
			"target":34963
		},
		{
			"buffer":0,
			"byteLength":172212,
			"byteOffset":451864,
			"target":34962
		},
		{
			"buffer":0,
			"byteLength":114808,
			"byteOffset":624076,
			"target":34962
		},
		{
			"buffer":0,
			"byteLength":172212,
			"byteOffset":738884,
			"target":34962
		},
		{
			"buffer":0,
			"byteLength":60240,
			"byteOffset":911096,
			"target":34963
		},
		{
			"buffer":0,
			"byteLength":8940,
			"byteOffset":971336,
			"target":34962
		},
		{
			"buffer":0,
			"byteLength":5960,
			"byteOffset":980276,
			"target":34962
		},
		{
			"buffer":0,
			"byteLength":8940,
			"byteOffset":986236,
			"target":34962
		},
		{
			"buffer":0,
			"byteLength":3096,
			"byteOffset":995176,
			"target":34963
		}
	],
	"buffers":[
		{
			"byteLength":998272,
			"uri":"data:application/octet-stream;base64,"
		}
	]
}
