{
	"asset":{
		"generator":"Khronos glTF Blender I/O v3.5.30",
		"version":"2.0"
	},
	"scene":0,
	"scenes":[
		{
			"name":"Scene",
			"nodes":[
				0,
				1,
				2
			]
		}
	],
	"nodes":[
		{
			"mesh":0,
			"name":"Curve.035",
			"scale":[
				3.9731640815734863,
				1.2997585535049438,
				3.9731640815734863
			]
		},
		{
			"mesh":1,
			"name":"Curve",
			"scale":[
				3.9731640815734863,
				3.9803340435028076,
				3.973162889480591
			]
		},
		{
			"mesh":2,
			"name":"Curve.005",
			"scale":[
				3.9731640815734863,
				1.3733259439468384,
				3.9731640815734863
			]
		}
	],
	"materials":[
		{
			"doubleSided":true,
			"name":"SVGMat.004",
			"pbrMetallicRoughness":{
				"baseColorFactor":[
					0,
					0,
					0,
					1
				],
				"metallicFactor":0,
				"roughnessFactor":0.4000000059604645
			}
		}
	],
	"meshes":[
		{
			"name":"Curve.035",
			"primitives":[
				{
					"attributes":{
						"POSITION":0,
						"TEXCOORD_0":1,
						"NORMAL":2
					},
					"indices":3,
					"material":0
				}
			]
		},
		{
			"name":"Curve",
			"primitives":[
				{
					"attributes":{
						"POSITION":4,
						"TEXCOORD_0":5,
						"NORMAL":6
					},
					"indices":7,
					"material":0
				}
			]
		},
		{
			"name":"Curve.005",
			"primitives":[
				{
					"attributes":{
						"POSITION":8,
						"TEXCOORD_0":9,
						"NORMAL":10
					},
					"indices":11,
					"material":0
				}
			]
		}
	],
	"accessors":[
		{
			"bufferView":0,
			"componentType":5126,
			"count":850,
			"max":[
				0.009022216312587261,
				0.021136075258255005,
				0.003944548312574625
			],
			"min":[
				-0.00953427329659462,
				0.013442338444292545,
				-0.005014298018068075
			],
			"type":"VEC3"
		},
		{
			"bufferView":1,
			"componentType":5126,
			"count":850,
			"type":"VEC2"
		},
		{
			"bufferView":2,
			"componentType":5126,
			"count":850,
			"type":"VEC3"
		},
		{
			"bufferView":3,
			"componentType":5123,
			"count":1824,
			"type":"SCALAR"
		},
		{
			"bufferView":4,
			"componentType":5126,
			"count":288,
			"max":[
				0.024368900805711746,
				0.004396616015583277,
				0.02392992377281189
			],
			"min":[
				-0.023621145635843277,
				0,
				-0.02404998615384102
			],
			"type":"VEC3"
		},
		{
			"bufferView":5,
			"componentType":5126,
			"count":288,
			"type":"VEC2"
		},
		{
			"bufferView":6,
			"componentType":5126,
			"count":288,
			"type":"VEC3"
		},
		{
			"bufferView":7,
			"componentType":5123,
			"count":564,
			"type":"SCALAR"
		},
		{
			"bufferView":8,
			"componentType":5126,
			"count":67694,
			"max":[
				0.020814744755625725,
				0.020076649263501167,
				0.0199081189930439
			],
			"min":[
				-0.01985148712992668,
				0.012795056216418743,
				-0.0207454115152359
			],
			"type":"VEC3"
		},
		{
			"bufferView":9,
			"componentType":5126,
			"count":67694,
			"type":"VEC2"
		},
		{
			"bufferView":10,
			"componentType":5126,
			"count":67694,
			"type":"VEC3"
		},
		{
			"bufferView":11,
			"componentType":5125,
			"count":138012,
			"type":"SCALAR"
		}
	],
	"bufferViews":[
		{
			"buffer":0,
			"byteLength":10200,
			"byteOffset":0,
			"target":34962
		},
		{
			"buffer":0,
			"byteLength":6800,
			"byteOffset":10200,
			"target":34962
		},
		{
			"buffer":0,
			"byteLength":10200,
			"byteOffset":17000,
			"target":34962
		},
		{
			"buffer":0,
			"byteLength":3648,
			"byteOffset":27200,
			"target":34963
		},
		{
			"buffer":0,
			"byteLength":3456,
			"byteOffset":30848,
			"target":34962
		},
		{
			"buffer":0,
			"byteLength":2304,
			"byteOffset":34304,
			"target":34962
		},
		{
			"buffer":0,
			"byteLength":3456,
			"byteOffset":36608,
			"target":34962
		},
		{
			"buffer":0,
			"byteLength":1128,
			"byteOffset":40064,
			"target":34963
		},
		{
			"buffer":0,
			"byteLength":812328,
			"byteOffset":41192,
			"target":34962
		},
		{
			"buffer":0,
			"byteLength":541552,
			"byteOffset":853520,
			"target":34962
		},
		{
			"buffer":0,
			"byteLength":812328,
			"byteOffset":1395072,
			"target":34962
		},
		{
			"buffer":0,
			"byteLength":552048,
			"byteOffset":2207400,
			"target":34963
		}
	],
	"buffers":[
		{
			"byteLength":2759448,
			"uri":"data:application/octet-stream;base64,"
		}
	]
}
