{
	"asset":{
		"generator":"Khronos glTF Blender I/O v3.5.30",
		"version":"2.0"
	},
	"scene":0,
	"scenes":[
		{
			"name":"Scene",
			"nodes":[
				0,
				1,
				2,
				3
			]
		}
	],
	"nodes":[
		{
			"mesh":0,
			"name":"Curve.004"
		},
		{
			"mesh":1,
			"name":"Curve.012"
		},
		{
			"mesh":2,
			"name":"Curve.013"
		},
		{
			"mesh":3,
			"name":"Curve.014"
		}
	],
	"materials":[
		{
			"doubleSided":true,
			"name":"SVGMat.006",
			"pbrMetallicRoughness":{
				"baseColorFactor":[
					0,
					0,
					0,
					1
				],
				"metallicFactor":0,
				"roughnessFactor":0.4000000059604645
			}
		}
	],
	"meshes":[
		{
			"name":"Curve.046",
			"primitives":[
				{
					"attributes":{
						"POSITION":0,
						"TEXCOORD_0":1,
						"NORMAL":2
					},
					"indices":3,
					"material":0
				}
			]
		},
		{
			"name":"Curve.049",
			"primitives":[
				{
					"attributes":{
						"POSITION":4,
						"TEXCOORD_0":5,
						"NORMAL":6
					},
					"indices":7,
					"material":0
				}
			]
		},
		{
			"name":"Curve.050",
			"primitives":[
				{
					"attributes":{
						"POSITION":8,
						"TEXCOORD_0":9,
						"NORMAL":10
					},
					"indices":11,
					"material":0
				}
			]
		},
		{
			"name":"Curve.051",
			"primitives":[
				{
					"attributes":{
						"POSITION":12,
						"TEXCOORD_0":13,
						"NORMAL":14
					},
					"indices":15,
					"material":0
				}
			]
		}
	],
	"accessors":[
		{
			"bufferView":0,
			"componentType":5126,
			"count":1350,
			"max":[
				0.0257610734552145,
				0,
				0.02840535156428814
			],
			"min":[
				-0.025180723518133163,
				-0.003029390936717391,
				-0.04446180909872055
			],
			"type":"VEC3"
		},
		{
			"bufferView":1,
			"componentType":5126,
			"count":1350,
			"type":"VEC2"
		},
		{
			"bufferView":2,
			"componentType":5126,
			"count":1350,
			"type":"VEC3"
		},
		{
			"bufferView":3,
			"componentType":5123,
			"count":2724,
			"type":"SCALAR"
		},
		{
			"bufferView":4,
			"componentType":5126,
			"count":2121,
			"max":[
				0.020865267142653465,
				0.0020804309751838446,
				0.0016084194649010897
			],
			"min":[
				-0.020287269726395607,
				0,
				-0.04079291224479675
			],
			"type":"VEC3"
		},
		{
			"bufferView":5,
			"componentType":5126,
			"count":2121,
			"type":"VEC2"
		},
		{
			"bufferView":6,
			"componentType":5126,
			"count":2121,
			"type":"VEC3"
		},
		{
			"bufferView":7,
			"componentType":5123,
			"count":4296,
			"type":"SCALAR"
		},
		{
			"bufferView":8,
			"componentType":5126,
			"count":5031,
			"max":[
				0.02209230698645115,
				0.0020804309751838446,
				0.024734338745474815
			],
			"min":[
				-0.021505750715732574,
				0,
				-0.005040062591433525
			],
			"type":"VEC3"
		},
		{
			"bufferView":9,
			"componentType":5126,
			"count":5031,
			"type":"VEC2"
		},
		{
			"bufferView":10,
			"componentType":5126,
			"count":5031,
			"type":"VEC3"
		},
		{
			"bufferView":11,
			"componentType":5123,
			"count":10320,
			"type":"SCALAR"
		},
		{
			"bufferView":12,
			"componentType":5126,
			"count":1494,
			"max":[
				0.0064415112137794495,
				0.0020804309751838446,
				-0.011484792456030846
			],
			"min":[
				-0.005857985466718674,
				0,
				-0.017528841271996498
			],
			"type":"VEC3"
		},
		{
			"bufferView":13,
			"componentType":5126,
			"count":1494,
			"type":"VEC2"
		},
		{
			"bufferView":14,
			"componentType":5126,
			"count":1494,
			"type":"VEC3"
		},
		{
			"bufferView":15,
			"componentType":5123,
			"count":3096,
			"type":"SCALAR"
		}
	],
	"bufferViews":[
		{
			"buffer":0,
			"byteLength":16200,
			"byteOffset":0,
			"target":34962
		},
		{
			"buffer":0,
			"byteLength":10800,
			"byteOffset":16200,
			"target":34962
		},
		{
			"buffer":0,
			"byteLength":16200,
			"byteOffset":27000,
			"target":34962
		},
		{
			"buffer":0,
			"byteLength":5448,
			"byteOffset":43200,
			"target":34963
		},
		{
			"buffer":0,
			"byteLength":25452,
			"byteOffset":48648,
			"target":34962
		},
		{
			"buffer":0,
			"byteLength":16968,
			"byteOffset":74100,
			"target":34962
		},
		{
			"buffer":0,
			"byteLength":25452,
			"byteOffset":91068,
			"target":34962
		},
		{
			"buffer":0,
			"byteLength":8592,
			"byteOffset":116520,
			"target":34963
		},
		{
			"buffer":0,
			"byteLength":60372,
			"byteOffset":125112,
			"target":34962
		},
		{
			"buffer":0,
			"byteLength":40248,
			"byteOffset":185484,
			"target":34962
		},
		{
			"buffer":0,
			"byteLength":60372,
			"byteOffset":225732,
			"target":34962
		},
		{
			"buffer":0,
			"byteLength":20640,
			"byteOffset":286104,
			"target":34963
		},
		{
			"buffer":0,
			"byteLength":17928,
			"byteOffset":306744,
			"target":34962
		},
		{
			"buffer":0,
			"byteLength":11952,
			"byteOffset":324672,
			"target":34962
		},
		{
			"buffer":0,
			"byteLength":17928,
			"byteOffset":336624,
			"target":34962
		},
		{
			"buffer":0,
			"byteLength":6192,
			"byteOffset":354552,
			"target":34963
		}
	],
	"buffers":[
		{
			"byteLength":360744,
			"uri":"data:application/octet-stream;base64,"
		}
	]
}
