{
	"asset":{
		"generator":"Khronos glTF Blender I/O v3.5.30",
		"version":"2.0"
	},
	"scene":0,
	"scenes":[
		{
			"name":"Scene",
			"nodes":[
				0
			]
		}
	],
	"nodes":[
		{
			"mesh":0,
			"name":"path1"
		}
	],
	"meshes":[
		{
			"name":"path1.001",
			"primitives":[
				{
					"attributes":{
						"POSITION":0,
						"TEXCOORD_0":1,
						"NORMAL":2
					},
					"indices":3
				}
			]
		}
	],
	"accessors":[
		{
			"bufferView":0,
			"componentType":5126,
			"count":729,
			"max":[
				0.03478487581014633,
				0.009208892472088337,
				0.016668930649757385
			],
			"min":[
				-0.034787148237228394,
				-0.00920890737324953,
				-0.016667570918798447
			],
			"type":"VEC3"
		},
		{
			"bufferView":1,
			"componentType":5126,
			"count":729,
			"type":"VEC2"
		},
		{
			"bufferView":2,
			"componentType":5126,
			"count":729,
			"type":"VEC3"
		},
		{
			"bufferView":3,
			"componentType":5123,
			"count":1548,
			"type":"SCALAR"
		}
	],
	"bufferViews":[
		{
			"buffer":0,
			"byteLength":8748,
			"byteOffset":0,
			"target":34962
		},
		{
			"buffer":0,
			"byteLength":5832,
			"byteOffset":8748,
			"target":34962
		},
		{
			"buffer":0,
			"byteLength":8748,
			"byteOffset":14580,
			"target":34962
		},
		{
			"buffer":0,
			"byteLength":3096,
			"byteOffset":23328,
			"target":34963
		}
	],
	"buffers":[
		{
			"byteLength":26424,
			"uri":"data:application/octet-stream;base64,"
		}
	]
}
